<svg width="128" height="128" viewBox="0 0 128 128" fill="none" xmlns="http://www.w3.org/2000/svg">
  <path fill-rule="evenodd" clip-rule="evenodd" d="M54.9631 22.0892C35.6737 22.3742 22.2724 23.2232 17.3247 24.4739C12.7917 25.6196 9.07007 28.7908 7.20468 33.0967C5.5263 36.9711 4.43635 46.1543 4.06053 59.5863C3.73295 71.2955 4.76839 86.0535 6.35816 92.3318C7.10788 95.2928 8.36943 97.5651 10.3833 99.5816C12.6474 101.849 15.2465 103.186 18.6433 103.831C23.0366 104.665 33.0717 105.408 43.169 105.647C44.6592 105.683 46.0168 105.729 46.1859 105.75C46.3551 105.771 50.5149 105.848 55.43 105.921C62.5067 106.026 66.0693 106.026 72.5481 105.924C94.9028 105.57 107.306 104.719 111.737 103.235C116.028 101.798 119.581 98.3436 121.092 94.138C122.654 89.7913 123.673 80.0505 123.978 66.5452C124.075 62.2917 123.842 54.7915 123.438 49.1212C122.924 41.9025 122.008 36.142 120.954 33.5022C119.573 30.0425 116.975 27.2231 113.668 25.5967C111.853 24.7038 110.532 24.3305 107.665 23.9006C101.316 22.9484 89.5241 22.3453 72.1231 22.0825C64.7423 21.9711 62.9141 21.9717 54.9631 22.0892Z" fill="#FE0000"/>
  <path d="M50.9375 61.8125H44.0625C42.9234 61.8125 42 62.7149 42 63.8281V83.9844C42 85.0976 42.9234 86 44.0625 86H50.9375C52.0766 86 53 85.0976 53 83.9844V63.8281C53 62.7149 52.0766 61.8125 50.9375 61.8125ZM47.5 82.6406C46.3609 82.6406 45.4375 81.7382 45.4375 80.625C45.4375 79.5118 46.3609 78.6094 47.5 78.6094C48.6391 78.6094 49.5625 79.5118 49.5625 80.625C49.5625 81.7382 48.6391 82.6406 47.5 82.6406ZM75 49.8407C75 53.403 72.7682 55.4011 72.1403 57.7812H80.8821C83.7522 57.7812 85.9865 60.1115 85.9999 62.6606C86.0072 64.1671 85.3515 65.7889 84.3294 66.7924L84.32 66.8016C85.1652 68.7615 85.0278 71.5078 83.52 73.4757C84.2661 75.6505 83.5141 78.322 82.1122 79.7542C82.4816 81.2321 82.3051 82.49 81.5839 83.5026C79.8299 85.9653 75.4826 86 71.8065 86L71.562 85.9999C67.4123 85.9985 64.0162 84.522 61.2873 83.3355C59.916 82.7393 58.123 82.0013 56.7626 81.9768C56.2006 81.9667 55.75 81.5185 55.75 80.9692V63.0158C55.75 62.7471 55.8602 62.4892 56.0558 62.3002C59.4601 59.0127 60.924 55.5321 63.7143 52.8006C64.9865 51.555 65.4492 49.6734 65.8965 47.8538C66.2786 46.3 67.078 43 68.8125 43C70.875 43 75 43.6719 75 49.8407Z" fill="white"/>
</svg>